<svg xmlns="http://www.w3.org/2000/svg" xmlns:xlink="http://www.w3.org/1999/xlink" width="175" height="118" viewBox="0 0 175 118">
    <defs>
        <path id="a" d="M0 .04h174.99v69.774H0z"/>
    </defs>
    <g fill="none" fill-rule="evenodd" opacity=".7">
        <g transform="translate(0 42.543)">
            <mask id="b" fill="#fff">
                <use xlink:href="#a"/>
            </mask>
            <path fill="#747474" d="M56.419 13.773c-7.857 0-7.857-6.63 0-6.63H111.1c6.786 0 6.786-7.104 0-7.104H56.42c-23.373 0-24.365 22.93 0 22.93h80.833c10.08 0 9.802 8.76 0 8.76H33.244c-44.563 0-44.087 38.085 0 38.085h132.937c11.746 0 11.746-12.787 0-12.787H33.244c-17.5 0-16.23-14.918 0-14.918h104.008c29.246 0 29.008-28.375 0-28.375l-80.833.04z" mask="url(#b)"/>
        </g>
        <path fill="#A2A2A2" d="M137.252 58.763H56.42c-3.611 0-7.817-1.105-8.77-4.183-.595-1.855.317-3.788 2.38-5.21 1.191-.828 1.628-1.854 1.112-2.683-.714-1.066-2.818-1.46-5.04-.158-3.65 2.17-5.397 5.486-4.524 8.722.993 3.552 5.397 7.38 14.842 7.38h80.793c7.54 0 10.953 3.63 10.953 7.025 0 3.393-3.413 7.024-10.953 7.024H33.244c-19.92 0-28.968 8.406-28.968 16.22 0 7.815 9.047 16.22 28.968 16.22H75.15c1.746 0 3.174-.355 4.167-1.026a2.651 2.651 0 0 0 1.31-2.13c0-1.54-1.707-3.198-5.477-3.198H33.244c-11.626 0-16.944-5.446-16.944-10.458 0-5.011 5.277-10.458 16.944-10.458h104.008c12.421 0 18.096-5.96 18.096-11.523 0-5.565-5.675-11.564-18.096-11.564"/>
        <path fill="#DFDFDF" d="M81.459 34.61l8.968-11.128c.833-1.066 2.42-1.224 3.452-.395.159.119.278.237.397.395l8.968 11.129H81.46z"/>
        <path fill="#CFCFCF" d="M53.363 24.152l-.04-.71h-2.936v.71c-.159 0-.278.08-.278.237 0 .158.08.277.239.277h.317v7.853h-.238v.71h2.936v-.71h-.277v-7.853h.277c.16 0 .278-.08.278-.237 0-.158-.08-.277-.238-.277h-.04zM57.649 24.152l-.04-.71h-2.936v.71c-.159 0-.238.158-.238.277 0 .118.119.197.238.237h.238v7.853h-.238v.71h2.936v-.71h-.238v-7.853h.278c.159 0 .238-.158.238-.277-.04-.158-.159-.237-.238-.237M61.895 24.152l-.04-.71H58.92v.71c-.159 0-.278.08-.278.237 0 .158.08.277.238.277h.318v7.853h-.238v.71h2.936v-.71h-.238v-7.853h.278c.159 0 .238-.158.238-.277-.04-.158-.159-.237-.278-.237M66.22 24.152l-.04-.71h-2.936v.71c-.158 0-.277.08-.277.237 0 .158.079.277.238.277h.317v7.853h-.238v.71h2.937v-.71h-.239v-7.853h.278c.159 0 .278-.08.278-.237 0-.158-.08-.277-.238-.277h-.08z"/>
        <path fill="#CFCFCF" d="M47.689 33.23h18.77v-9.788h-18.77z"/>
        <path fill="#DFDFDF" d="M44.911 35.834h29.603V34.69H44.911z"/>
        <path fill="#EEE" d="M46.38 34.69h26.626v-1.5H46.38zM46.38 23.403h25.357V20.6H46.379zM44.911 35.834h17.54V34.69H44.91zM51.578 32.52h2.42v-8.367h-2.42z"/>
        <path fill="#EEE" d="M51.34 33.19h2.936v-.71H51.34z"/>
        <path fill="#DFDFDF" d="M51.34 24.153h2.936v-.71H51.34z"/>
        <path fill="#EEE" d="M47.332 32.52h2.42v-8.367h-2.42z"/>
        <path fill="#EEE" d="M47.054 33.19h2.936v-.71h-2.936z"/>
        <path fill="#DFDFDF" d="M47.054 24.153h2.936v-.71h-2.936z"/>
        <path fill="#EEE" d="M55.863 32.52h2.421v-8.367h-2.42z"/>
        <path fill="#EEE" d="M55.625 33.19h2.937v-.71h-2.937z"/>
        <path fill="#DFDFDF" d="M55.625 24.153h2.937v-.71h-2.937z"/>
        <path fill="#EEE" d="M60.149 32.52h2.42v-8.367h-2.42z"/>
        <path fill="#EEE" d="M59.911 33.19h2.937v-.71H59.91z"/>
        <path fill="#DFDFDF" d="M59.911 24.153h2.937v-.71H59.91zM64.395 32.52h2.42v-8.367h-2.42z"/>
        <path fill="#DFDFDF" d="M64.157 33.19h2.937v-.71h-2.937zM64.157 24.153h2.937v-.71h-2.937zM63.72 23.442h9.365V20.68H63.72z"/>
        <path fill="#CFCFCF" d="M63.8 15.825h-8.73c-.199 0-.397.04-.596.158l-8.81 4.657c-.118.04-.158.197-.158.316.04.158.199.237.318.197.04 0 .04 0 .079-.04l.992-.512H62.61l.794.434c.159.079.357.158.556.158h9.365c.119 0 .238-.119.238-.237a.217.217 0 0 0-.12-.198l-9.047-4.775a1.125 1.125 0 0 0-.595-.158"/>
        <path fill="#EEE" d="M54.752 16.457l-8.135 4.301h16.27z"/>
        <path fill="#DFDFDF" d="M67.133 32.52h2.421v-8.367h-2.42z"/>
        <path fill="#DFDFDF" d="M66.895 33.19h2.936v-.71h-2.936zM66.895 24.153h2.936v-.71h-2.936z"/>
        <path fill="#DFDFDF" d="M66.895 24.152h2.937c.158 0 .238.119.238.237 0 .158-.12.237-.238.237h-2.937c-.159 0-.238-.118-.238-.237-.04-.118.08-.237.238-.237"/>
        <path fill="#DFDFDF" d="M69.792 32.52h2.42v-8.367h-2.42z"/>
        <path fill="#DFDFDF" d="M69.554 33.19h2.936v-.71h-2.936zM69.554 24.153h2.936v-.71h-2.936zM66.816 32.48h.317v-8.406h-.317z"/>
        <path fill="#DFDFDF" d="M69.554 32.48h.317v-8.406h-.317z"/>
        <path fill="#898989" d="M74.236 24.31l22.897-2.328L83.88 10.695h-8.928z"/>
        <path fill="#C0C0C0" d="M97.133 52.883h-8.968l-7.46-30.901h16.428z"/>
        <path fill="#E7E7E7" d="M61.617 52.883h26.548V21.982L74.91 10.695 61.617 21.982z"/>
        <path fill="#C0C0C0" d="M76.617 28.888h-3.452v-3.946c0-.947.793-1.737 1.746-1.737.952 0 1.746.79 1.746 1.737l-.04 3.946zM69.078 28.888h-3.453v-3.946c0-.947.794-1.737 1.746-1.737.953 0 1.746.79 1.746 1.737l-.04 3.946zM84.157 28.888h-3.452v-3.946c0-.947.793-1.737 1.746-1.737.952 0 1.746.79 1.746 1.737l-.04 3.946zM76.617 39.268h-3.452V35.32c0-.947.793-1.736 1.746-1.736.952 0 1.746.789 1.746 1.736l-.04 3.947zM69.078 39.268h-3.453V35.32c0-.947.794-1.736 1.746-1.736.953 0 1.746.789 1.746 1.736l-.04 3.947zM84.157 39.268h-3.452V35.32c0-.947.793-1.736 1.746-1.736.952 0 1.746.789 1.746 1.736l-.04 3.947zM73.165 52.883h3.452v-8.88h-3.452zM69.078 49.647h-3.453V45.7c0-.947.794-1.736 1.746-1.736.953 0 1.746.79 1.746 1.736l-.04 3.947zM84.157 49.647h-3.452V45.7c0-.947.793-1.736 1.746-1.736.952 0 1.746.79 1.746 1.736l-.04 3.947z"/>
        <path fill="#9E9E9E" d="M167.61 50.2c2.975 0 5.396 2.407 5.396 5.367h-10.794c0-2.96 2.421-5.368 5.397-5.368"/>
        <path fill="#B9B9B9" d="M159.355 47.91c4.246 0 7.699 3.434 7.699 7.656h-15.397c-.04-4.222 3.413-7.656 7.698-7.656"/>
        <path fill="#B2B2B2" d="M25.467 69.971h2.103V49.173h-2.103zM16.062 69.932h2.103V33.506h-2.103z"/>
        <path fill="#9E9E9E" d="M24.197 62.276c-4.246 0-7.699 3.433-7.699 7.656h15.397c.04-4.223-3.413-7.656-7.698-7.656"/>
        <path fill="#B9B9B9" d="M15.943 64.564c-2.977 0-5.397 2.408-5.397 5.368h10.793c0-2.96-2.42-5.368-5.396-5.368"/>
        <path fill="#9E9E9E" d="M26.498 40.57c4.778 0 8.651 3.852 8.651 8.603 0 4.752-3.873 8.604-8.65 8.604-4.779 0-8.652-3.852-8.652-8.604 0-4.751 3.873-8.603 8.651-8.603"/>
        <path fill="#B9B9B9" d="M17.093 26.836c4.485 0 8.096 3.592 8.096 8.05v14.169c0 4.46-3.611 8.05-8.096 8.05-4.484 0-8.095-3.59-8.095-8.05V34.887c.04-4.46 3.651-8.05 8.095-8.05"/>
        <path fill="#CCC" d="M14.712 48.108c3.135 0 5.675-2.526 5.675-5.644V32.52c0-2.684-1.944-5.012-4.603-5.525-3.889.67-6.746 4.025-6.746 7.933v7.577c0 3.038 2.54 5.564 5.674 5.604"/>
        <path fill="#969696" d="M106.895 37.926h18.294v-6.828h-18.294z"/>
        <path fill="#747474" d="M106.895 37.926h6.349v-6.828h-6.35z"/>
        <path fill="#969696" d="M115.744 3.986h-.674l-5.357 27.112h4.404z"/>
        <path fill="#B2B2B2" d="M115.744 3.986h1.27l5.357 27.112h-8.254z"/>
        <path fill="#B2B2B2" d="M116.062 0a2.375 2.375 0 0 1 2.38 2.368 2.375 2.375 0 0 1-2.38 2.368 2.375 2.375 0 0 1-2.381-2.368A2.375 2.375 0 0 1 116.06 0"/>
        <path fill="#D8D8D8" d="M116.657 33.387h5.159c.635 0 1.15.513 1.15 1.145 0 .631-.515 1.144-1.15 1.144h-5.159c-.635 0-1.15-.513-1.15-1.144 0-.632.515-1.145 1.15-1.145"/>
        <path fill="#969696" d="M105.943 31.69h20.198v-1.105h-20.198zM105.943 38.478h20.198v-1.105h-20.198z"/>
        <path fill="#E7E7E7" d="M28.959 92.269h35.754V62.59H28.959z"/>
        <path fill="#898989" d="M35.11 54.54h23.412v8.051H28.96z"/>
        <path fill="#C0C0C0" d="M64.673 92.269H52.37V62.59l6.151-8.05 6.15 8.05zM28.959 67.92H52.37v-2.29H28.96zM28.959 73.247H52.37v-2.29H28.96zM28.959 78.575H52.37v-2.29H28.96zM28.959 83.902H52.37v-2.289H28.96zM28.959 89.23H52.37v-2.289H28.96z"/>
        <path fill="#B2B2B2" d="M157.173 117.882h2.976v-34.69h-2.976z"/>
        <path fill="#B9B9B9" d="M158.641 69.024c6.746 0 12.183 5.446 12.183 12.116v14.089c0 6.709-5.477 12.116-12.183 12.116-6.746 0-12.182-5.446-12.182-12.116v-14.09c0-6.708 5.436-12.115 12.182-12.115"/>
        <path fill="#CCC" d="M154.832 95.387c4.642 0 8.373-3.75 8.373-8.328v-9.708c0-3.946-2.778-7.34-6.667-8.169-5.833.987-10.119 6.038-10.119 11.958v5.88c0 4.618 3.77 8.367 8.413 8.367"/>
        <path fill="#A8A8A8" d="M122.332 117.882h2.38v-19.22h-2.38zM146.737 117.882h2.38v-19.22h-2.38z"/>
        <path fill="#787878" d="M122.332 101.504h2.38v3.196c0 .671-.515 1.184-1.19 1.184-.675 0-1.19-.513-1.19-1.184v-3.196zM146.736 101.504h2.381v3.196c0 .671-.516 1.184-1.19 1.184-.675 0-1.19-.513-1.19-1.184v-3.196z"/>
        <path fill="#A2A2A2" d="M118.919 80.114h33.571a2.17 2.17 0 0 1 2.183 2.17v17.68a2.17 2.17 0 0 1-2.183 2.171H118.92a2.17 2.17 0 0 1-2.182-2.17v-17.68a2.17 2.17 0 0 1 2.182-2.171"/>
        <path fill="#B3B3B3" d="M144.038 99.925c0-1.224-.992-2.25-2.262-2.25h-1.587c-1.151.04-2.103-.828-2.143-1.973a2.045 2.045 0 0 1 1.984-2.131h1.785c1.231 0 2.263-.987 2.263-2.25 0-1.262-.992-2.249-2.263-2.249h-1.428c-1.23 0-2.262-1.026-2.262-2.25 0-1.223.992-2.249 2.262-2.249h1.428c1.231 0 2.263-.986 2.263-2.25 0-1.223-.992-2.249-2.263-2.249H118.96a2.17 2.17 0 0 0-2.183 2.17v17.681a2.17 2.17 0 0 0 2.183 2.17h22.856c1.19.08 2.223-.946 2.223-2.17"/>
        <path fill="#FFF" d="M152.49 78.575H118.92a3.716 3.716 0 0 0-3.73 3.71v17.68a3.716 3.716 0 0 0 3.73 3.71h33.571a3.716 3.716 0 0 0 3.73-3.71v-17.68c0-2.014-1.666-3.67-3.73-3.71m0 1.539a2.17 2.17 0 0 1 2.183 2.17v17.68a2.17 2.17 0 0 1-2.183 2.171H118.92a2.17 2.17 0 0 1-2.183-2.17v-17.68a2.17 2.17 0 0 1 2.183-2.171h33.571"/>
        <path fill="#FFF" d="M149.792 89.546l-2.46-3.71c-.12-.197-.397-.276-.596-.118l-.119.118-2.46 3.71c-.119.197-.08.473.12.592a.56.56 0 0 0 .237.079h1.31v5.998a.44.44 0 0 0 .436.434h1.39a.44.44 0 0 0 .436-.434v-5.998h1.31a.44.44 0 0 0 .436-.434c.04-.08 0-.197-.04-.237M122.649 87.533h16.15a1.106 1.106 0 1 1 0 2.21h-16.15a1.106 1.106 0 0 1-1.111-1.105c0-.631.476-1.105 1.111-1.105M122.649 92.545h5.357a1.106 1.106 0 1 1 0 2.21h-5.357a1.106 1.106 0 0 1-1.111-1.105c0-.592.476-1.105 1.111-1.105M131.578 92.545h4.563a1.106 1.106 0 1 1 0 2.21h-4.563a1.106 1.106 0 0 1-1.112-1.105c0-.592.516-1.105 1.112-1.105"/>
        <path fill="#9E9E9E" d="M156.895 111.37c3.65 0 6.588 2.92 6.588 6.551h-13.175c0-3.63 2.937-6.55 6.587-6.55"/>
        <path fill="#B9B9B9" d="M146.776 108.568c5.199 0 9.405 4.183 9.405 9.353h-18.85c.04-5.17 4.246-9.353 9.445-9.353"/>
        <path fill="#9E9E9E" d="M86.062 62.947c-8.492 0-15.357 6.866-15.318 15.312 0 5.17 2.66 9.985 6.984 12.787 7.223 4.696 7.977 7.893 5.358 12.747-.04.04-.08.118-.12.197v.04a3.335 3.335 0 0 0-.357 1.499c-.079 1.894 1.429 3.473 3.334 3.552 1.904.079 3.492-1.42 3.571-3.315v-.237c0-.513-.119-1.026-.357-1.5v-.039c-.04-.079-.08-.118-.08-.197-2.579-4.894-1.864-8.051 5.358-12.747 7.103-4.578 9.127-14.05 4.524-21.114-2.818-4.38-7.66-6.985-12.897-6.985"/>
        <path fill="#FFF" d="M77.53 75.812l6.071-.513 2.46-5.604 2.382 5.643 6.11.474-4.563 4.065 1.39 6.038-5.318-3.197-5.278 3.197 1.31-6.078z"/>
        <path fill="#9E9E9E" d="M152.848 34.532c-6.151 0-11.111 4.972-11.111 11.05 0 3.75 1.904 7.222 5.039 9.274 5.238 3.394 5.754 5.683 3.89 9.235-.041.04-.041.079-.08.118v.04c-.596 1.223-.12 2.723 1.15 3.315 1.23.592 2.739.118 3.334-1.145.159-.355.278-.75.238-1.105 0-.355-.08-.75-.238-1.065v-.04l-.08-.118c-1.865-3.552-1.349-5.84 3.889-9.235 5.159-3.315 6.627-10.182 3.254-15.273-2.023-3.157-5.516-5.051-9.285-5.051"/>
        <path fill="#FFF" d="M146.657 43.845l4.365-.354 1.826-4.066 1.706 4.066 4.445.354-3.334 2.96 1.032 4.341-3.85-2.328-3.849 2.328.953-4.38z"/>
        <path fill="#9E9E9E" d="M47.014 16.851c-5.159 0-9.365 4.184-9.365 9.314 0 3.157 1.587 6.078 4.286 7.814 4.405 2.881 4.841 4.815 3.254 7.775l-.04.118a2.33 2.33 0 0 0-.198.908 2.086 2.086 0 0 0 2.024 2.17c1.19.04 2.142-.828 2.182-2.012v-.198c0-.315-.08-.631-.198-.907l-.04-.119c-1.587-2.96-1.15-4.933 3.254-7.774 4.325-2.802 5.555-8.564 2.778-12.866a9.58 9.58 0 0 0-7.937-4.223"/>
        <path fill="#FFF" d="M41.776 24.705l3.73-.316 1.508-3.433 1.468 3.433 3.69.316-2.777 2.486.873 3.67-3.254-1.973-3.214 1.973.793-3.71z"/>
        <path fill="#C0C0C0" d="M117.61 70.01h21.785V39.387h-21.786z"/>
        <path fill="#9A9A9A" d="M125.189 70.01h1.905V45.425h-1.905zM129.91 70.01h1.906V45.425h-1.905zM134.633 70.01h1.905V45.425h-1.905zM120.466 70.01h1.905V45.425h-1.905z"/>
        <path fill="#E7E7E7" d="M117.61 39.386l-12.183 7.498v23.127h12.182z"/>
    </g>
</svg>
